<?xml version="1.0" standalone="no"?>
<!DOCTYPE svg PUBLIC "-//W3C//DTD SVG 20010904//EN"
 "http://www.w3.org/TR/2001/REC-SVG-20010904/DTD/svg10.dtd">
<svg version="1.0" xmlns="http://www.w3.org/2000/svg"
 width="150.000000pt" height="150.000000pt" viewBox="0 0 150.000000 150.000000"
 preserveAspectRatio="xMidYMid meet">
<metadata>
Created by potrace 1.14, written by Peter Selinger 2001-2017
</metadata>
<g transform="translate(0.000000,150.000000) scale(0.100000,-0.100000)"
fill="#000000" stroke="none">
<path d="M661 1023 c-5 -10 -23 -72 -40 -138 -18 -66 -34 -127 -37 -136 -4
-14 -12 -15 -77 -3 -104 19 -116 18 -129 -11 -10 -22 -3 -37 62 -147 102 -171
128 -208 149 -208 9 0 33 16 51 35 96 99 188 135 351 135 76 0 99 3 110 16 11
13 11 54 1 226 -10 198 -18 238 -43 238 -5 0 -49 -36 -98 -80 -49 -44 -92 -80
-94 -80 -3 0 -37 38 -76 85 -75 88 -109 106 -130 68z"/>
</g>
</svg>
